<svg xmlns="http://www.w3.org/2000/svg" width="512" height="512"><path fill="none" pointer-events="none" d="M0 0h512v512H0z"/><path d="M399.986 512h-287.94c-51.862 0-94.07-42.209-94.07-94.038V94.072C17.975 42.208 60.183 0 112.045 0h287.94c51.863 0 94.039 42.209 94.039 94.071v323.89c0 51.863-42.176 94.039-94.039 94.039zM112.046 43.44c-27.928 0-50.63 22.736-50.63 50.631v323.89c0 27.896 22.736 50.632 50.63 50.632h287.94c27.929 0 50.631-22.77 50.631-50.631V94.072c0-27.93-22.735-50.631-50.63-50.631h-287.94z" fill="#888" data-original="#030104" xmlns="http://www.w3.org/2000/svg"/><path xmlns="http://www.w3.org/2000/svg" d="M234.933 363.124c-2.57 2.586-6.079 4.029-9.722 4.029s-7.152-1.443-9.723-4.03l-77.646-77.658c-8.058-8.058-8.058-21.124 0-29.167l9.723-9.725c8.06-8.058 21.112-8.058 29.17 0l48.476 48.478L356.2 164.06c8.06-8.058 21.124-8.058 29.17 0l9.722 9.725c8.058 8.058 8.058 21.122 0 29.168zm0 0" fill="#888" data-original="#000000"/></svg>